<?xml version="1.0" encoding="utf-8"?>
<!-- Generator: Adobe Illustrator 26.0.1, SVG Export Plug-In . SVG Version: 6.00 Build 0)  -->
<svg version="1.1" id="Calque_1" xmlns="http://www.w3.org/2000/svg" xmlns:xlink="http://www.w3.org/1999/xlink" x="0px" y="0px"
	 viewBox="0 0 595.3 841.9" style="enable-background:new 0 0 595.3 841.9;" xml:space="preserve">
<style type="text/css">
	.st0{fill:#FFFFFF;}
	.st1{fill:#2957A4;}
	.st2{font-family:'Helvetica-Bold';}
	.st3{font-size:24px;}
	.st4{fill:#0F80C3;}
	.st5{font-family:'Helvetica';}
</style>
<g>
	<circle class="st0" cx="332.1" cy="365.4" r="65.3"/>
	<g>
		<text transform="matrix(1 0 0 1 282.7642 406.1816)"><tspan x="0" y="0" class="st1 st2 st3">Eau</tspan><tspan x="44" y="0" class="st4 st5 st3">-Plus</tspan></text>
		<g>
			<path class="st4" d="M357.8,357.8c0,14.2-11.5,25.6-25.6,25.6c-14.2,0-25.6-11.5-25.6-25.6c0-13.5,18.7-26.1,24.8-44.1
				c0.2-0.7,1.3-0.7,1.5,0C338.2,332.4,357.8,344.3,357.8,357.8z"/>
			<path class="st0" d="M350.1,361.2c0,3.5-1,7.2-1.8,10.4c-0.3,1.1,1.2,1.7,1.7,0.7c1.9-3.6,2.9-7.7,2.9-12.1
				c0-5.9-1.9-11.3-5.2-15.6c-0.7-0.9-2.1-0.1-1.6,0.9C348.3,350.3,350.1,355.4,350.1,361.2z"/>
		</g>
	</g>
</g>
</svg>
